PathFileType	4	(X/Y/Z)	D:\TRACE\spot_10-12-23\spot_body_motion_3_5-platform.trc
DataRate	CameraRate	NumFrames	NumMarkers	Units	OrigDataRate	OrigDataStartFrame	OrigNumFrames
100.00	100.00	      67	5	mm	100.00	3501	      7000
Frame#	Time	Left_Front			Right_Front			Left_Aft			Right_Aft			Post			
		X1	Y1	Z1	X2	Y2	Z2	X3	Y3	Z3	X4	Y4	Z4	X5	Y5	Z5	

3501	35.000	-754.51910	25.00581	-636.64636	818.16699	29.90904	-629.98114	-671.49603	-7.42810	500.44125	745.90015	-5.40369	586.27258	28.31069	771.17804	-934.31299	
3502	35.010	-754.54382	24.81381	-636.69861	818.18292	29.69414	-630.09583	-671.57770	-7.27387	500.37988	745.87744	-5.23991	586.22577	28.27629	770.84808	-934.60852	
3503	35.020	-754.51935	24.64220	-636.80609	818.10455	29.34787	-630.19562	-671.54895	-7.12654	500.33478	745.77893	-5.08263	586.24194	28.13557	770.59076	-934.87903	
3504	35.030	-754.53625	24.34398	-636.93439	817.97119	29.05350	-630.28107	-671.56396	-6.95107	500.20938	745.71497	-4.89509	586.23645	28.10915	770.39728	-935.16602	
3505	35.040	-754.52350	24.16461	-637.02655	817.89447	28.75694	-630.34540	-671.53528	-6.81470	500.18973	745.60406	-4.67165	586.22504	28.09212	770.22205	-935.39014	
3506	35.050	-754.57367	23.99880	-637.06769	817.86047	28.53780	-630.41071	-671.55219	-6.73589	500.15662	745.56055	-4.50801	586.16748	28.08010	769.96747	-935.64227	
3507	35.060	-754.72510	23.95100	-637.19116	817.83923	28.29993	-630.45923	-671.54504	-6.61563	500.12198	745.58398	-4.30325	586.11322	28.10668	769.60535	-935.90057	
3508	35.070	-754.80634	23.83112	-637.23901	817.81781	28.14904	-630.53076	-671.53223	-6.53451	500.09778	745.63910	-4.06599	586.11450	27.97784	769.26996	-936.13055	
3509	35.080	-754.81769	23.67100	-637.29846	817.85480	28.00408	-630.53345	-671.55353	-6.48617	500.07877	745.59839	-3.95081	586.11761	27.88077	769.00372	-936.36816	
3510	35.090	-754.81067	23.54682	-637.31409	817.84601	27.87998	-630.49005	-671.54749	-6.38290	500.08868	745.61774	-3.76966	586.11938	27.91764	768.74176	-936.65674	
3511	35.100	-754.84650	23.35558	-637.27344	817.80798	27.80942	-630.49628	-671.59729	-6.25813	500.11169	745.62830	-3.59700	586.12927	28.04174	768.52222	-936.89166	
3512	35.110	-754.85486	23.20349	-637.34302	817.84393	27.68642	-630.45612	-671.62567	-6.14192	500.09381	745.53333	-3.48162	586.07343	28.02613	768.32800	-937.13007	
3513	35.120	-754.87079	22.99162	-637.33820	817.76019	27.58056	-630.52515	-671.64185	-6.02828	500.11758	745.51819	-3.28257	586.04950	28.07650	768.11707	-937.38159	
3514	35.130	-754.88074	22.73755	-637.33020	817.70483	27.42643	-630.57074	-671.67474	-5.91459	500.07733	745.51453	-3.12965	586.01599	28.05151	767.97424	-937.73383	
3515	35.140	-754.82355	22.53039	-637.35339	817.75623	27.25247	-630.61780	-671.68317	-5.80399	500.04651	745.55469	-2.99637	586.00427	28.05406	767.75739	-937.85699	
3516	35.150	-754.82227	22.35316	-637.40784	817.71033	27.16492	-630.68744	-671.75385	-5.70552	500.01904	745.50085	-2.88551	585.95435	27.97900	767.50800	-937.99371	
3517	35.160	-754.86755	22.23789	-637.49780	817.68628	27.02848	-630.73181	-671.76233	-5.56531	499.99185	745.51733	-2.75605	585.91296	27.93242	767.35266	-938.10046	
3518	35.170	-754.93201	22.14478	-637.52948	817.70074	26.92414	-630.75537	-671.84973	-5.42134	499.93768	745.43512	-2.68501	585.91418	27.79443	767.14331	-938.25543	
3519	35.180	-755.02051	22.03994	-637.61719	817.59698	26.86240	-630.79761	-671.85724	-5.33046	499.91626	745.40527	-2.59880	585.89984	27.69667	766.99091	-938.33490	
3520	35.190	-755.17126	22.19796	-637.76056	817.52612	26.76698	-630.91626	-671.91815	-5.27136	499.91974	745.33582	-2.50985	585.92310	27.65788	766.83405	-938.49255	
3521	35.200	-755.19476	21.96366	-637.72589	817.42133	26.66348	-631.03638	-671.92389	-5.16729	499.89020	745.32721	-2.42683	585.89746	27.60390	766.69739	-938.58746	
3522	35.210	-755.21606	21.81954	-637.73346	817.43170	26.54790	-631.07928	-671.96747	-5.13444	499.88882	745.32916	-2.35536	585.87836	27.49776	766.56201	-938.69818	
3523	35.220	-755.20074	21.67854	-637.72760	817.39038	26.47575	-631.10083	-671.96954	-5.07303	499.86566	745.31512	-2.26068	585.89734	27.46166	766.53510	-938.88513	
3524	35.230	-755.23755	21.58139	-637.71356	817.35382	26.38635	-631.16772	-672.00018	-4.99466	499.80588	745.26666	-2.15817	585.90277	27.42819	766.40045	-938.98694	
3525	35.240	-755.24164	21.49437	-637.73309	817.30664	26.32869	-631.15613	-672.04742	-4.96420	499.79977	745.20551	-2.07564	585.84644	27.33368	766.35510	-939.08929	
3526	35.250	-755.28076	21.45160	-637.69623	817.25806	26.25423	-631.20563	-672.10822	-4.91624	499.78143	745.20630	-1.98694	585.84589	27.29022	766.27795	-939.25079	
3527	35.260	-755.27893	21.35564	-637.69360	817.15143	26.20927	-631.21399	-672.10278	-4.88605	499.74570	745.13123	-1.94223	585.86310	27.35167	766.24097	-939.40735	
3528	35.270	-755.32062	21.41520	-637.74469	817.15558	26.14707	-631.20618	-672.11182	-4.84186	499.72098	745.15100	-1.87936	585.82727	27.37817	766.11823	-939.43610	
3529	35.280	-755.33319	21.33423	-637.75543	817.09442	26.13215	-631.21722	-672.12335	-4.75915	499.70297	745.16034	-1.78085	585.84399	27.34449	766.04828	-939.51093	
3530	35.290	-755.37183	21.35906	-637.76801	817.05188	26.10270	-631.21387	-672.19818	-4.72478	499.67932	745.11859	-1.71665	585.82379	27.35966	765.96399	-939.57141	
3531	35.300	-755.36493	21.25204	-637.73926	817.01874	26.06032	-631.21594	-672.22504	-4.71224	499.64404	745.08789	-1.67620	585.84314	27.33616	765.85956	-939.58057	
3532	35.310	-755.43048	21.17966	-637.78357	816.99854	25.99641	-631.20258	-672.24628	-4.69071	499.62253	745.06445	-1.64175	585.84479	27.26566	765.79242	-939.57385	
3533	35.320	-755.43799	21.14735	-637.76880	816.92596	25.94403	-631.21802	-672.29706	-4.69153	499.62808	745.00842	-1.62148	585.82428	27.16680	765.72357	-939.57849	
3534	35.330	-755.46820	21.13419	-637.79700	816.87073	25.92374	-631.19751	-672.31592	-4.69346	499.65240	745.00366	-1.56645	585.82043	27.18664	765.69879	-939.60559	
3535	35.340	-755.53046	21.14753	-637.86072	816.79047	25.92150	-631.21106	-672.37897	-4.63179	499.62170	745.01752	-1.51545	585.81201	27.17282	765.62714	-939.63013	
3536	35.350	-755.58087	21.16668	-637.86877	816.78418	25.86940	-631.22040	-672.43933	-4.57778	499.58542	744.99493	-1.47653	585.84393	27.15925	765.55701	-939.65735	
3537	35.360	-755.58258	21.01393	-637.87213	816.74500	25.82363	-631.19916	-672.46808	-4.58441	499.58206	744.94275	-1.45000	585.79999	27.14567	765.48450	-939.70184	
3538	35.370	-755.58301	20.93189	-637.89056	816.70428	25.74511	-631.19189	-672.54797	-4.53774	499.52734	744.94733	-1.37461	585.82404	27.16517	765.35193	-939.77954	
3539	35.380	-755.77014	21.22366	-638.02435	816.64435	25.68473	-631.15765	-672.55505	-4.52866	499.52664	744.92609	-1.35444	585.81506	27.08307	765.30170	-939.78485	
3540	35.390	-755.80554	21.13891	-638.02460	816.63727	25.65702	-631.15216	-672.59778	-4.50378	499.54031	744.90277	-1.32224	585.84076	27.00528	765.19312	-939.94592	
3541	35.400	-755.81854	21.05069	-638.02850	816.57782	25.59605	-631.16351	-672.61810	-4.47111	499.51706	744.89807	-1.27638	585.82037	27.02386	765.09167	-940.05841	
3542	35.410	-755.86804	21.04325	-638.01202	816.59912	25.56134	-631.13562	-672.67230	-4.42609	499.48538	744.86499	-1.26234	585.81128	26.92862	765.05231	-940.16150	
3543	35.420	-755.89496	20.93531	-638.00195	816.57959	25.52833	-631.12805	-672.72980	-4.42840	499.49005	744.86786	-1.23073	585.81421	26.93193	764.97205	-940.26007	
3544	35.430	-755.91632	20.90721	-638.02765	816.53223	25.47238	-631.15558	-672.78900	-4.39931	499.50592	744.80896	-1.21043	585.80652	26.85248	764.94788	-940.30505	
3545	35.440	-755.96692	20.82281	-638.05701	816.48749	25.41106	-631.18573	-672.78259	-4.35118	499.50089	744.80139	-1.15715	585.77466	26.88770	764.87567	-940.31726	
3546	35.450	-755.99567	20.77598	-638.04700	816.45276	25.39924	-631.20477	-672.81677	-4.33532	499.48663	744.81506	-1.12041	585.80377	26.84915	764.83160	-940.29279	
3547	35.460	-756.01538	20.63272	-638.09540	816.44989	25.29480	-631.23181	-672.83643	-4.27942	499.49109	744.76636	-1.09729	585.77441	26.83008	764.74481	-940.34460	
3548	35.470	-756.04510	20.47986	-638.12646	816.35999	25.31056	-631.28650	-672.85931	-4.26374	499.47858	744.72815	-1.04458	585.74219	26.85268	764.70032	-940.34717	
3549	35.480	-756.00751	20.42906	-638.17065	816.39111	25.17813	-631.30286	-672.86969	-4.26960	499.46277	744.72510	-0.99524	585.75476	26.90500	764.58551	-940.37537	
3550	35.490	-755.86951	20.13059	-638.13983	816.38501	25.06451	-631.29474	-672.91089	-4.20374	499.46545	744.66864	-0.96784	585.74048	26.90730	764.53113	-940.38531	
3551	35.500	-756.03162	20.24858	-638.15881	816.38202	25.03688	-631.27386	-672.94000	-4.21582	499.46793	744.65039	-0.89853	585.71924	26.86898	764.39514	-940.49500	
3552	35.510	-756.06573	20.17996	-638.19385	816.34045	24.99260	-631.34015	-672.94403	-4.13963	499.45853	744.62939	-0.86815	585.69922	26.82099	764.33179	-940.56451	
3553	35.520	-756.16547	20.15228	-638.20428	816.33911	24.85770	-631.35168	-672.93994	-4.13918	499.45386	744.56671	-0.81925	585.66595	26.74066	764.21545	-940.71149	
3554	35.530	-756.13153	20.03048	-638.19904	816.33099	24.74961	-631.32886	-672.93890	-4.09816	499.44684	744.52100	-0.74833	585.67181	26.61240	764.14001	-940.92462	
3555	35.540	-756.16071	19.99666	-638.18726	816.31042	24.73523	-631.39746	-672.96021	-4.09180	499.42740	744.47247	-0.69293	585.62006	26.55889	764.05536	-941.00464	
3556	35.550	-756.19104	19.93688	-638.22467	816.35779	24.64854	-631.38562	-672.92322	-4.07735	499.41049	744.46930	-0.65801	585.61261	26.60122	763.86676	-941.10754	
3557	35.560	-756.14746	19.84658	-638.19415	816.36279	24.47825	-631.43848	-672.94983	-4.01359	499.41553	744.42456	-0.57268	585.58398	26.49120	763.76764	-941.29370	
3558	35.570	-756.15643	19.76239	-638.22430	816.37585	24.39000	-631.45795	-672.91589	-4.01032	499.42419	744.41742	-0.52938	585.53516	26.39286	763.59222	-941.55157	
3559	35.580	-756.14282	19.65660	-638.24158	816.36780	24.33607	-631.47931	-672.96985	-3.92287	499.40060	744.37408	-0.46267	585.48834	26.33838	763.26837	-941.69385	
3560	35.590	-756.17133	19.60039	-638.24939	816.39764	24.15666	-631.53137	-672.97290	-3.82078	499.38852	744.30249	-0.37158	585.45715	26.30977	763.12384	-941.87140	
3561	35.600	-756.20422	19.54234	-638.28662	816.37628	24.00635	-631.52435	-672.99066	-3.72786	499.29141	744.27972	-0.27125	585.41534	26.39752	762.95569	-942.00391	
3562	35.610	-756.22363	19.41577	-638.35486	816.38715	23.88783	-631.51062	-672.99359	-3.59545	499.27896	744.29663	-0.17203	585.36902	26.45405	762.75415	-942.10272	
3563	35.620	-756.28296	19.30300	-638.43536	816.36047	23.80382	-631.48132	-672.98920	-3.47558	499.22272	744.31512	-0.10782	585.32806	26.45700	762.62573	-942.26001	
3564	35.630	-756.32507	19.18003	-638.46161	816.42230	23.64904	-631.46289	-673.02509	-3.31490	499.12457	744.28424	-0.05164	585.27216	26.44257	762.50610	-942.36383	
3565	35.640	-756.35956	19.06744	-638.54022	816.41772	23.53151	-631.46405	-672.96594	-3.13477	499.08197	744.37085	0.13309	585.22443	26.43037	762.30450	-942.54565	
3566	35.650	-756.35986	18.86835	-638.61438	816.44043	23.41094	-631.52368	-673.04108	-3.03031	499.04837	744.37677	0.27681	585.14984	26.45131	762.16162	-942.80096	
3567	35.660	-756.30328	18.63176	-638.68317	816.44891	23.25681	-631.53503	-673.01477	-2.88269	499.02969	744.41205	0.41382	585.14874	26.49972	762.00446	-943.09192	
